HIERARCHY
ROOT hips
{
  OFFSET 0 10.680822821525009 1.3929502295107734
  CHANNELS 6 Xposition Yposition Zposition Yrotation Xrotation Zrotation
  JOINT spine
  {
    OFFSET -7.042017322922631e-31 0.6058489940359625 0
    CHANNELS 3 Yrotation Xrotation Zrotation
    JOINT chest
    {
      OFFSET 0 1.2699794144455032 0
      CHANNELS 3 Yrotation Xrotation Zrotation
      JOINT upperChest
      {
        OFFSET 0 1.217799211677689 0
        CHANNELS 3 Yrotation Xrotation Zrotation
        JOINT neck
        {
          OFFSET 0 1.5248826104153006 0
          CHANNELS 3 Yrotation Xrotation Zrotation
          JOINT head
          {
            OFFSET 0 0.8197772727844447 0
            CHANNELS 3 Yrotation Xrotation Zrotation
            JOINT leftEye
            {
              OFFSET 0.2793952361220866 0.6769952096623495 0.1830357412467788
              CHANNELS 3 Yrotation Xrotation Zrotation
              End Site
              {
                OFFSET 0.2793952361220866 0.6769952096623495 0.1830357412467788
              }
            }
            JOINT rightEye
            {
              OFFSET -0.27939522230689573 0.676995205357064 0.18303631459760622
              CHANNELS 3 Yrotation Xrotation Zrotation
              End Site
              {
                OFFSET -0.27939522230689573 0.676995205357064 0.18303631459760622
              }
            }
          }
        }
        JOINT leftShoulder
        {
          OFFSET 0.41486978509200423 1.1670505408695453 0
          CHANNELS 3 Yrotation Xrotation Zrotation
          JOINT leftUpperArm
          {
            OFFSET 0.9737926108153417 0 0
            CHANNELS 3 Yrotation Xrotation Zrotation
            JOINT leftLowerArm
            {
              OFFSET 2.5269332222665284 0 0
              CHANNELS 3 Yrotation Xrotation Zrotation
              JOINT leftHand
              {
                OFFSET 2.4263782738425914 0 0
                CHANNELS 3 Yrotation Xrotation Zrotation
                JOINT leftIndexProximal
                {
                  OFFSET 0.724320348022514 0.08170607082582437 0.20360061616140124
                  CHANNELS 3 Yrotation Xrotation Zrotation
                  JOINT leftIndexIntermediate
                  {
                    OFFSET 0.36548960630744587 -0.010566596513783999 -0.01414783573280308
                    CHANNELS 3 Yrotation Xrotation Zrotation
                    JOINT leftIndexDistal
                    {
                      OFFSET 0.22502819650693362 -0.007863819831430696 -0.007567681939621526
                      CHANNELS 3 Yrotation Xrotation Zrotation
                      End Site
                      {
                        OFFSET 0.22502819650693362 -0.007863819831430696 -0.007567681939621526
                      }
                    }
                  }
                }
                JOINT leftLittleProximal
                {
                  OFFSET 0.6720322998298205 0.08170601055037707 -0.3230036039466837
                  CHANNELS 3 Yrotation Xrotation Zrotation
                  JOINT leftLittleIntermediate
                  {
                    OFFSET 0.34583592281688713 5.476543019078406e-8 1.3869203337180114e-7
                    CHANNELS 3 Yrotation Xrotation Zrotation
                    JOINT leftLittleDistal
                    {
                      OFFSET 0.19925728062053938 0.003098047439490381 0.0038303983709246925
                      CHANNELS 3 Yrotation Xrotation Zrotation
                      End Site
                      {
                        OFFSET 0.19925728062053938 0.003098047439490381 0.0038303983709246925
                      }
                    }
                  }
                }
                JOINT leftMiddleProximal
                {
                  OFFSET 0.7300436596551069 0.0817073395107144 0.022661722987926763
                  CHANNELS 3 Yrotation Xrotation Zrotation
                  JOINT leftMiddleIntermediate
                  {
                    OFFSET 0.40758254347686607 -0.0000012383587111308714 2.408460318820138e-7
                    CHANNELS 3 Yrotation Xrotation Zrotation
                    JOINT leftMiddleDistal
                    {
                      OFFSET 0.2514490105498507 0.0000013869132886590307 9.738618134136345e-8
                      CHANNELS 3 Yrotation Xrotation Zrotation
                      End Site
                      {
                        OFFSET 0.2514490105498507 0.0000013869132886590307 9.738618134136345e-8
                      }
                    }
                  }
                }
                JOINT leftRingProximal
                {
                  OFFSET 0.7217261161191838 0.08170601902187746 -0.15043395722184966
                  CHANNELS 3 Yrotation Xrotation Zrotation
                  JOINT leftRingIntermediate
                  {
                    OFFSET 0.37808807487521556 0.0000013754022405443322 2.2046919317952884e-7
                    CHANNELS 3 Yrotation Xrotation Zrotation
                    JOINT leftRingDistal
                    {
                      OFFSET 0.21812105442344254 -0.002713483731960231 -0.004991354517454624
                      CHANNELS 3 Yrotation Xrotation Zrotation
                      End Site
                      {
                        OFFSET 0.21812105442344254 -0.002713483731960231 -0.004991354517454624
                      }
                    }
                  }
                }
                JOINT leftThumbProximal
                {
                  OFFSET 0.10793587079521427 -0.1652791240518252 -0.07775251827190094
                  CHANNELS 3 Yrotation Xrotation Zrotation
                  JOINT leftThumbIntermediate
                  {
                    OFFSET 0.40355819082296684 -0.017484006740276614 0.3177776014416309
                    CHANNELS 3 Yrotation Xrotation Zrotation
                    JOINT leftThumbDistal
                    {
                      OFFSET 0.2318764658022603 -0.018510186824293617 0.21396001800186287
                      CHANNELS 3 Yrotation Xrotation Zrotation
                      End Site
                      {
                        OFFSET 0.2318764658022603 -0.018510186824293617 0.21396001800186287
                      }
                    }
                  }
                }
              }
            }
          }
        }
        JOINT rightShoulder
        {
          OFFSET -0.4148697850920044 1.1670505408695453 0
          CHANNELS 3 Yrotation Xrotation Zrotation
          JOINT rightUpperArm
          {
            OFFSET -0.9737926108153414 0 0
            CHANNELS 3 Yrotation Xrotation Zrotation
            JOINT rightLowerArm
            {
              OFFSET -2.5269332222665293 0 0
              CHANNELS 3 Yrotation Xrotation Zrotation
              JOINT rightHand
              {
                OFFSET -2.42637827384259 0 0
                CHANNELS 3 Yrotation Xrotation Zrotation
                JOINT rightIndexProximal
                {
                  OFFSET -0.724320348022514 0.08170607082582437 0.20360061616140124
                  CHANNELS 3 Yrotation Xrotation Zrotation
                  JOINT rightIndexIntermediate
                  {
                    OFFSET -0.36548960630744587 -0.010566596513783999 -0.01414783573280308
                    CHANNELS 3 Yrotation Xrotation Zrotation
                    JOINT rightIndexDistal
                    {
                      OFFSET -0.22502819650693362 -0.007863819831430696 -0.007567681939621526
                      CHANNELS 3 Yrotation Xrotation Zrotation
                      End Site
                      {
                        OFFSET -0.22502819650693362 -0.007863819831430696 -0.007567681939621526
                      }
                    }
                  }
                }
                JOINT rightLittleProximal
                {
                  OFFSET -0.6720322998298205 0.08170601055037707 -0.3230036039466837
                  CHANNELS 3 Yrotation Xrotation Zrotation
                  JOINT rightLittleIntermediate
                  {
                    OFFSET -0.34583592281688713 5.476543019078406e-8 1.3869203337180114e-7
                    CHANNELS 3 Yrotation Xrotation Zrotation
                    JOINT rightLittleDistal
                    {
                      OFFSET -0.19925728062053938 0.003098047439490381 0.0038303983709246925
                      CHANNELS 3 Yrotation Xrotation Zrotation
                      End Site
                      {
                        OFFSET -0.19925728062053938 0.003098047439490381 0.0038303983709246925
                      }
                    }
                  }
                }
                JOINT rightMiddleProximal
                {
                  OFFSET -0.7300436596551069 0.0817073395107144 0.022661722987926763
                  CHANNELS 3 Yrotation Xrotation Zrotation
                  JOINT rightMiddleIntermediate
                  {
                    OFFSET -0.40758254347686607 -0.0000012383587111308714 2.408460318820138e-7
                    CHANNELS 3 Yrotation Xrotation Zrotation
                    JOINT rightMiddleDistal
                    {
                      OFFSET -0.2514490105498507 0.0000013869132886590307 9.738618134136345e-8
                      CHANNELS 3 Yrotation Xrotation Zrotation
                      End Site
                      {
                        OFFSET -0.2514490105498507 0.0000013869132886590307 9.738618134136345e-8
                      }
                    }
                  }
                }
                JOINT rightRingProximal
                {
                  OFFSET -0.7217261161191838 0.08170601902187746 -0.15043395722184966
                  CHANNELS 3 Yrotation Xrotation Zrotation
                  JOINT rightRingIntermediate
                  {
                    OFFSET -0.37808807487521556 0.0000013754022405443322 2.2046919317952884e-7
                    CHANNELS 3 Yrotation Xrotation Zrotation
                    JOINT rightRingDistal
                    {
                      OFFSET -0.21812105442344254 -0.002713483731960231 -0.004991354517454624
                      CHANNELS 3 Yrotation Xrotation Zrotation
                      End Site
                      {
                        OFFSET -0.21812105442344254 -0.002713483731960231 -0.004991354517454624
                      }
                    }
                  }
                }
                JOINT rightThumbProximal
                {
                  OFFSET -0.10793587079521427 -0.1652791240518252 -0.07775251827190094
                  CHANNELS 3 Yrotation Xrotation Zrotation
                  JOINT rightThumbIntermediate
                  {
                    OFFSET -0.40355819082296684 -0.017484006740276614 0.3177776014416309
                    CHANNELS 3 Yrotation Xrotation Zrotation
                    JOINT rightThumbDistal
                    {
                      OFFSET -0.2318764658022603 -0.018510186824293617 0.21396001800186287
                      CHANNELS 3 Yrotation Xrotation Zrotation
                      End Site
                      {
                        OFFSET -0.2318764658022603 -0.018510186824293617 0.21396001800186287
                      }
                    }
                  }
                }
              }
            }
          }
        }
      }
    }
  }
  JOINT leftUpperLeg
  {
    OFFSET 0.8486251390888677 -0.4421577294694363 0
    CHANNELS 3 Yrotation Xrotation Zrotation
    JOINT leftLowerLeg
    {
      OFFSET 0 -4.10147812638609 0
      CHANNELS 3 Yrotation Xrotation Zrotation
      JOINT leftFoot
      {
        OFFSET -0.0002543926476658853 -4.77292286812444 0.007402811231737388
        CHANNELS 3 Yrotation Xrotation Zrotation
        JOINT leftToes
        {
          OFFSET 0 -0.7027875951174846 1.2062924140498823
          CHANNELS 3 Yrotation Xrotation Zrotation
          End Site
          {
            OFFSET 0 -0.7027875951174846 1.2062924140498823
          }
        }
      }
    }
  }
  JOINT rightUpperLeg
  {
    OFFSET -0.8486251390888677 -0.4421577294694363 0
    CHANNELS 3 Yrotation Xrotation Zrotation
    JOINT rightLowerLeg
    {
      OFFSET 0 -4.10147812638609 0
      CHANNELS 3 Yrotation Xrotation Zrotation
      JOINT rightFoot
      {
        OFFSET 0.0002543926476658853 -4.77292286812444 0.007402811231737388
        CHANNELS 3 Yrotation Xrotation Zrotation
        JOINT rightToes
        {
          OFFSET 0 -0.7027875951174846 1.2062924140498823
          CHANNELS 3 Yrotation Xrotation Zrotation
          End Site
          {
            OFFSET 0 -0.7027875951174846 1.2062924140498823
          }
        }
      }
    }
  }
}
MOTION
Frames: 4
Frame Time: 0.03333333333333333
0.29361701011657715 -1.2062687596353605 0.04524859040975571 9.306282126486256 10.964931083869086 4.026027723646579 3.4752363399538253 0.1478945571559966 1.3060022141574053 -1.1489749154023186 10.122561528055472 -3.718315289406791 0 0 0 -1.2160550047486434 0.7563634993938071 -0.653644656087264 -7.876153578973465 -26.21995710474905 1.1175211543049295 0 0 0 0 0 0 -16.748356735789507 -2.7911052101988263 -25.281750887761714 -8.915195210534096 -6.615786472052504 -33.51437526548226 -76.09478638598698 -7.599830223969127 7.0997598806601925 5.465647525093935 4.559212475738651 5.546298367486137 10.087022879519921 3.5219929636367677 -65.68593190244725 5.100609823337113 2.431705700289735 -58.453161374932435 3.4562339053157056 1.3440086491548162 -45.491867276362555 11.00373947803334 5.826901337914552 -87.93028401844835 4.166132040078824 2.099489173755947 -57.73730931294202 4.511070248427718 2.2520975164292794 -50.40153089310485 10.401022153317927 5.268441295849643 -73.67742405707028 5.228526886304288 2.479972021483788 -60.63747324059872 4.1190877184639305 2.0223007912815993 -51.57335689263329 10.096566774656978 2.930182401660818 -73.60976031640728 4.330759965475698 2.90488410044406 -59.16604446962604 3.870873608264219 2.755012138844594 -57.0916692317983 -2.854814500946016 13.348629870095754 9.568727868503638 15.319357541400032 -2.636322997003114 3.785361183782729 -5.542732110829749 5.6661496220428305 1.1207476327054906 2.443879584420119 -5.20597756761858 12.877658213179826 19.20463121170599 24.6449871100022 35.35242175265686 82.8286676783312 -7.694148709804615 -8.082156239089073 3.9402982402450295 -5.12541312689415 -14.249316710649172 -6.861429869204326 2.683256405570271 55.55982065110616 -5.024251734487748 2.3474522679149765 57.52214396316884 -3.0139524203176045 0.7270571841087314 48.237690380072266 -12.76955397437322 6.265711874099081 73.80120930329166 -5.289642996748244 3.8447581864132583 83.97894126990171 -2.938201953743743 -0.3851105762892828 51.15212913957608 -9.153230437175003 1.5488472606949784 58.21202302385888 -5.233882521546394 2.5929400685707567 62.58108335364855 -4.242631917179804 2.128252318028461 54.99022419451751 -10.308571772074012 4.012986720120676 74.05520602202031 -4.634954360433832 3.7073814355199013 68.85745599111615 -2.6657710345781083 0.9425944294148395 53.09253259334889 -5.764393100003845 4.688351542441288 -6.73250366466214 -21.405199873753155 4.2600363751815395 -3.695967768688507 8.380271358394172 -13.619375654104303 3.544677043905682 0.16218657499440176 -25.082693827155236 -10.756078728443267 -4.0819561874853205 47.82849033535292 -1.4914301872637858 -2.2939885533404296 -33.558157734924194 7.945690504812825 0.000004612658958421698 -7.250293950936263 -0.0000035687697066283918 -8.981177583959687 -40.99378270929199 -7.5935149982213686 -170.27554964658742 73.57671069506942 -171.47554226258353 -14.027564309863651 -7.01791525876363 1.8640470949384835 -9.448002288244329e-7 -3.590212770290059 0.000005303285300362685
0.29409587383270264 -0.9021649083170011 0.06951791793107986 6.758214539744478 11.40386047680055 0.6716917459882449 2.9216874943820783 0.025076890260919527 3.305659857104665 -4.116387282858048 9.991299514608569 0.967653264893716 0 0 0 -0.44205797504227456 2.8646344429578745 -2.510657928379848 -2.4968482237756096 -28.346498976684018 -2.0012503097357444 0 0 0 0 0 0 -18.596542728126003 -3.1005145490427637 -25.21997249791332 -10.042119310494577 -12.841511480311894 -35.866479776291044 -75.56960908849454 -7.587676892510829 7.023720645330782 5.501800264166659 4.141403408988734 6.787479534083095 9.037654901776026 3.1839867191229354 -69.19853346735015 5.180803610135882 2.5673134730160987 -60.239022633374574 3.5703508417761554 1.4541358217619569 -47.282567067297975 10.664737686662075 2.6365723494012228 -87.30763172437132 4.216090058409774 2.17082731235709 -58.730264977614816 4.550730006506877 2.3138107302694984 -51.232293242909506 10.069634673058856 2.761860935814282 -75.2041015672201 5.216326962101364 2.459497867501489 -60.364300008033815 4.145567758768674 2.058398602589348 -52.08708895583464 10.015711254616264 2.3124670763557567 -74.69852416192522 4.362695988090282 2.976807442799184 -60.06733581434243 3.9037502364765566 2.8221660418632224 -57.95594999735126 -2.9281921805094533 13.319857249258439 9.533358549818644 16.043284709057993 -1.5140629825974976 2.771739283729585 -4.668371991217744 5.2384040167861405 4.086170322971399 5.1758503715023005 -5.181068486443464 9.355156603547421 12.359512905374823 30.102925206661563 35.8246947703367 93.38678746272414 -7.611151822472636 -9.62615024897836 -2.8643565386527583 -6.091335914965905 -7.106724526536482 -6.743999507935297 2.622462543563309 52.61343647421619 -5.032475203979312 2.3603504377375093 57.69579032142731 -3.0270590908471475 0.7361780445011983 48.411461655759815 -13.102253404056892 6.033086753003858 70.08763426116043 -5.309527650899589 3.9315810551601653 84.98846995434577 -3.032959570006172 -0.3438370682784864 52.16223522692868 -8.88872032950403 1.2797443737883663 54.630839153975835 -5.242784577972301 2.608907143435679 62.790610351615506 -4.253052611491213 2.143235354633227 55.19967426848922 -10.21045806778626 3.60869030432954 72.18239462988032 -4.633565101493491 3.7020431594964474 68.79430717444397 -2.661093999892343 0.9388453241823584 53.0263418950027 -8.221649068640192 5.483607802562947 -6.627843246976883 -21.405199873753155 4.2600363751815395 -3.695967768688507 8.380271358394172 -13.619375654104303 3.544677043905682 2.643089432581168 -14.144423413053426 -5.807742123068755 -4.4702280840012065 39.48880485339381 -0.9277686816433451 -3.31936282374576 -20.430317752707303 7.3686289918179595 0.000019102679278604324 -22.326184014347266 -0.000011255450059396064 -6.619070526302634 -48.9997780150267 -2.956880590702913 -136.09858661532047 85.82565923834686 -136.0136309772215 -13.361706067194236 -8.850923761009476 7.809363139747815 0.000011195401785680744 -11.11625170797291 -0.000013566950565575982
0.2670215368270874 -0.5487637242349699 0.10164657980203629 3.752122036908442 11.930380724395903 -3.141977876920613 2.1340961776149467 0.44113124527615755 5.215028946466054 -7.719570076229602 10.658785129485327 5.6314403718192665 0 0 0 0.1309943774395118 3.483171716209888 -2.085025917504723 6.0486061118643315 -29.869208188450475 -8.077016794482244 0 0 0 0 0 0 -17.45028234379526 -2.687044489497284 -22.00481690240699 -9.59468773037967 -15.113650909496377 -38.90957613206756 -80.86006945272506 -7.678500165450172 7.794024014321394 -1.2200751152876401 1.4792328232416594 10.173445384370993 6.7729392288750825 2.009974914849991 -72.21301055293252 5.243448944054069 2.6804694106593328 -61.705643078092464 3.661740471182948 1.5474703682475324 -48.756965515355475 10.510729632139821 -1.703273475824561 -83.73540785410961 4.259003554582962 2.234396108930596 -59.6047650504148 4.551309760832918 2.314735053820203 -51.244861666054994 9.476836331754342 -1.4422814435464602 -74.76593519149755 5.267790953271461 2.54734601938236 -61.53205368121263 4.215704498108004 2.1574344310981735 -53.479769846094946 9.699054973978848 1.370147003974532 -71.87605642273004 4.411266912314681 3.092343318063071 -61.503859937729764 3.9537577872515963 2.9294777576796855 -59.32397888061013 -3.100804325046255 13.247060020419356 9.447428734278272 15.793002396470461 -0.7477355869141213 4.2158638953480665 -4.596730127893311 4.940900767788842 5.6564102004229175 8.004756342574881 -5.212848088339686 7.413563654564774 5.887931488824263 33.90691608908683 33.89762072310259 101.47615904757471 -7.3579688250691895 -10.78433161336292 -1.2655236207954237 -5.248844109193879 -4.084131925869141 -6.382842737999749 2.4982779788245617 52.15582887507229 -5.039670428755097 2.371686049219639 57.84782433226118 -3.0384808519602853 0.744224999021661 48.56360237170718 -12.943496705326137 5.504805777412652 67.26469700864637 -5.333589858248998 4.047542003926406 86.3305342410857 -3.15779789514811 -0.28641653126749017 53.5048248130194 -8.735275543808863 1.0485162521595761 53.90272425310451 -5.2553711826019365 2.6318220559186196 63.09026628202932 -4.267828432767633 2.16464647718774 55.497800768646385 -10.106605385630223 3.1791454041260616 71.68784617785963 -4.644648555504981 3.7450848125277325 69.30384246765023 -2.6961492455417306 0.9672248443772267 53.52679933328107 -8.684696077730067 6.907394978250953 -6.4863068325759095 -21.405199873753155 4.2600363751815395 -3.695967768688507 8.380271358394172 -13.619375654104303 3.544677043905682 2.250106278034852 -10.067695544537083 -0.2572161856399372 2.0479088813724906 36.111118775992644 2.462021789520588 -6.053782400128009 5.317848554573178 -5.2196293442375294 -1.1911323502733657 -35.43561416599268 9.240339102540196 -6.064216270829127 -51.466410331412554 3.0834721037383046 -2.6680636835249447 72.93269155984258 -1.8905078725657267 -13.063708731039316 -10.63437994239629 4.582756002223495 0.000009605911397497511 -1.3748902236679474 -0.0000014400952615473106
0.23325733840465546 -0.3270287236246183 0.12516292929649353 0.38330024552980635 12.74899495801702 -6.036314833867341 1.6900068109200335 0.9078993743448505 6.281668354079204 -10.363689644689254 11.07605331820167 8.613694601198308 0 0 0 0.8282920116877001 3.4187602089661344 -1.021958551758938 13.326411030534793 -30.239987206275433 -12.481348390026366 0 0 0 0 0 0 -15.983614345080662 -2.3144069370482088 -19.231387417974393 -7.844567368518202 -15.50765352893853 -39.67474770453763 -89.5862153405047 -7.673631866147167 9.072516624487749 -11.074708352987964 0.5407664313787551 13.74241507565854 5.395603449750388 0.9513127557814492 -78.61434292617194 5.241531171193184 2.6769022886573026 -61.659764371685256 3.659463771377666 1.545067614598152 -48.71990281600499 10.625691351153952 -2.918400137150229 -84.52691936023065 4.24895580022366 2.2193049352623673 -59.397963208102134 4.5223532942677265 2.2694787225238535 -50.636207105007074 9.553083797388386 -3.7005095714475655 -77.43705358064264 5.2819273372783995 2.572282737259874 -61.86102316678075 4.252415885824166 2.2113646688136694 -54.228748105024366 9.621665136238347 0.6584718914670776 -73.20297574859057 4.428368909751443 3.1350728847674807 -62.03132464335874 3.9686236612177255 2.9627651382839977 -59.74516799960681 -3.3066278318405247 13.15984236837522 9.345108349903969 16.145110894341563 0.2490518396181865 3.7701449560415123 -4.442185402247441 4.468122165853065 4.737513012682779 10.257023134873705 -5.470386092470923 7.70013738310979 -2.997091963669443 37.376266809792845 28.995343041118932 110.05951556121393 -6.914897815525219 -11.961796952253067 1.5136277456553706 -2.95917941105094 -0.9902598545905547 -6.9151903671159 2.673297570070723 51.97040964547808 -5.048049005350811 2.385005506095464 58.026185862137126 -3.0518814976937634 0.7536888212189989 48.74208240077436 -13.359798995103025 5.476469646657558 64.84587867237381 -5.333307827689342 4.0461383153155985 86.31432709063847 -3.156299369874966 -0.2871499853781266 53.488647004644136 -8.723228697669137 1.1216375798021954 52.62412223173553 -5.273801029150311 2.6658593190711644 63.534262139085605 -4.289735676733884 2.1968032450980983 55.943690635118074 -10.03216535698646 2.9526119841013787 70.64437969373238 -4.654648478468079 3.78531694356653 69.77865728587774 -2.7288380290578536 0.9941492320407053 53.996796969286954 -7.352720322930267 9.29198291752866 -6.093323558473202 -21.405199873753155 4.2600363751815395 -3.695967768688507 8.380271358394172 -13.619375654104303 3.544677043905682 4.833699750170735 -10.690006606404474 1.449345139939035 5.8574423226357775 44.40500957271251 7.383445288009293 -8.544361950004639 12.722354069843558 -13.259007316104835 0.0036334968743089837 -5.085161512427968 0.8178968759669736 -8.682516406622733 -50.357906996217814 10.968646310052538 2.1222274640983323 51.25004677018292 0.38868122198616634 -9.342331353227102 -7.5654124662545 3.6689895798559164 0.0000050475668898222185 -6.318322854874706 -0.0000025699567188774595
